<svg xmlns="http://www.w3.org/2000/svg" viewBox="0 0 128 128" width="128" height="128">
  <circle cx="64" cy="64" r="60" fill="#0A5C36" />
  
  <circle cx="64" cy="64" r="46" fill="#D32F2F" />
  
  <g id="Adalet_Terazisi">
    <path d="M62 42h4v38h-4z" fill="#FFD700" />
    <path d="M52 80h24v4H52z" fill="#FFD700" />
    <path d="M56 76h16v4H56z" fill="#FFD700" />
    <path d="M34 46h60v3H34z" fill="#FFD700" />
    <path d="M34 49l-6 16h12z" fill="none" stroke="#FFD700" stroke-width="2" />
    <path d="M26 65h16c0 5-3.5 9-8 9s-8-4-8-9z" fill="#FFD700" />
    <path d="M94 49l-6 16h12z" fill="none" stroke="#FFD700" stroke-width="2" />
    <path d="M86 65h16c0 5-3.5 9-8 9s-8-4-8-9z" fill="#FFD700" />
    <circle cx="64" cy="39" r="3" fill="#FFD700" />
  </g>
  
  <g id="Buyutec">
    <path d="M96 96l18 18" stroke="#FFFFFF" stroke-width="7" stroke-linecap="round" />
    <circle cx="86" cy="86" r="15" fill="#0A5C36" stroke="#FFFFFF" stroke-width="4" />
    <circle cx="86" cy="86" r="11" fill="#E0F2F1" opacity="0.3" />
  </g>
</svg>
